# xmcd
#
# Track frame offsets:
#	150
#	10110
#	18612
#	26000
#	43675
#	56040
#	67452
#	82852
#
# Disc length: 1207 seconds
#
# Revision: 1
# Processed by: cddbd v1.4PL0 Copyright (c) Steve Scherf et al.
# Submitted via: MusicWizard 6.0.0
#
DISCID=6604b508
DTITLE=Johnny Cash - The Man In Black, 1963-1969 CD 6/6
DYEAR=1995
DGENRE=Country
TTITLE0=Big River
TTITLE1=Folsom Prison Blues
TTITLE2=I Still Miss Someone
TTITLE3=Rock Island Line
TTITLE4=Don't Think Twice, It's Alright
TTITLE5=I Walk The Line
TTITLE6=Ballad Of Ira Hayes
TTITLE7=Keep On The Sunny Side
EXTD=(c)1995 Bear Family Germany\nOriginal Columbia Records
EXTT0=
EXTT1=
EXTT2=
EXTT3=
EXTT4=
EXTT5=
EXTT6=
EXTT7=
PLAYORDER=
